<svg width="24" height="24" viewBox="0 0 24 24" fill="none" xmlns="http://www.w3.org/2000/svg">
<path d="M11.5234 0C5.16958 0 0 5.38314 0 12C0 18.6169 5.16958 24 11.5234 24C17.8769 24 23.0462 18.6169 23.0467 12C23.0467 5.38314 17.8774 0 11.5234 0ZM11.5234 22.4159C6.00798 22.4159 1.52114 17.7433 1.52114 12C1.52114 6.25675 6.00798 1.58405 11.5234 1.58405C17.0387 1.58405 21.5256 6.25675 21.5256 12C21.5251 17.7433 17.0382 22.4159 11.5234 22.4159Z" fill="black"/>
<path d="M11.5235 4.9502C10.875 4.9502 10.3474 5.49986 10.3474 6.17493C10.3472 6.50204 10.4694 6.80961 10.6914 7.04088C10.9135 7.27215 11.2091 7.39967 11.5235 7.39967C12.172 7.39967 12.6996 6.85027 12.6996 6.17493C12.6996 5.4996 12.172 4.9502 11.5235 4.9502Z" fill="black"/>
<path d="M11.5233 9.40967C10.976 9.40967 10.5305 9.87353 10.5305 10.4435V18.2727C10.5305 18.8424 10.976 19.3058 11.5233 19.3058C12.0702 19.3058 12.5156 18.8424 12.5159 18.2727V10.4435C12.5159 9.87353 12.0707 9.40967 11.5233 9.40967Z" fill="black"/>
</svg>
