<svg width="339" height="339" viewBox="0 0 339 339" fill="none" xmlns="http://www.w3.org/2000/svg">
<path d="M166.069 5.72586C167.622 3.13393 171.378 3.13392 172.931 5.72586L209.488 66.7323C210.394 68.2439 212.182 68.9846 213.892 68.5563L282.88 51.268C285.811 50.5335 288.467 53.1893 287.732 56.1204L270.444 125.108C270.015 126.818 270.756 128.606 272.268 129.512L333.274 166.069C335.866 167.622 335.866 171.378 333.274 172.931L272.268 209.488C270.756 210.394 270.015 212.182 270.444 213.892L287.732 282.88C288.467 285.811 285.811 288.467 282.88 287.732L213.892 270.444C212.182 270.015 210.394 270.756 209.488 272.268L172.931 333.274C171.378 335.866 167.622 335.866 166.069 333.274L129.512 272.268C128.606 270.756 126.818 270.015 125.108 270.444L56.1204 287.732C53.1893 288.467 50.5335 285.811 51.268 282.88L68.5563 213.892C68.9846 212.182 68.2439 210.394 66.7323 209.488L5.72586 172.931C3.13393 171.378 3.13392 167.622 5.72586 166.069L66.7323 129.512C68.2439 128.606 68.9846 126.818 68.5563 125.108L51.268 56.1204C50.5335 53.1893 53.1893 50.5335 56.1204 51.268L125.108 68.5563C126.818 68.9846 128.606 68.2439 129.512 66.7323L166.069 5.72586Z" fill="#242424"/>
<path d="M96.9024 170.468C92.8464 170.468 89.7624 169.256 87.6504 166.832C85.5384 164.408 84.4824 160.892 84.4824 156.284C84.4824 151.7 85.5384 148.208 87.6504 145.808C89.7864 143.384 92.8704 142.172 96.9024 142.172C103.598 142.172 107.498 145.532 108.602 152.252L104.858 152.72C103.922 147.608 101.126 145.052 96.4704 145.052C94.3584 145.052 92.5944 145.568 91.1784 146.6C89.2584 148.952 88.2984 152.276 88.2984 156.572C88.2984 160.148 89.0664 162.884 90.6024 164.78C92.1624 166.652 94.3944 167.588 97.2984 167.588C99.2424 167.588 100.826 167.18 102.05 166.364C103.226 165.188 104.078 163.52 104.606 161.36H108.386C107.81 164.312 106.562 166.568 104.642 168.128C102.746 169.688 100.166 170.468 96.9024 170.468ZM124.477 170.432C121.141 170.432 118.537 169.424 116.665 167.408C114.817 165.368 113.893 162.512 113.893 158.84C113.893 155.072 114.817 152.144 116.665 150.056C118.537 147.944 121.141 146.888 124.477 146.888C127.837 146.888 130.453 147.932 132.325 150.02C134.197 152.108 135.133 155.036 135.133 158.804C135.133 162.5 134.197 165.368 132.325 167.408C130.477 169.424 127.861 170.432 124.477 170.432ZM124.909 167.66C126.757 167.66 128.233 167.12 129.337 166.04C130.681 164.144 131.353 161.708 131.353 158.732C131.353 155.852 130.717 153.62 129.445 152.036C128.173 150.452 126.385 149.66 124.081 149.66C123.025 149.66 122.065 149.876 121.201 150.308C120.361 150.716 119.653 151.316 119.077 152.108C118.165 154.004 117.709 156.236 117.709 158.804C117.709 161.636 118.333 163.82 119.581 165.356C120.829 166.892 122.605 167.66 124.909 167.66ZM141.544 170C141.664 167.624 141.724 163.868 141.724 158.732C141.724 153.596 141.688 149.828 141.616 147.428H145.576L145.036 154.052H145.396C145.948 151.868 146.872 150.14 148.168 148.868C149.464 147.596 151.084 146.948 153.028 146.924C156.916 146.924 159.052 149.3 159.436 154.052H159.724C160.252 151.796 161.212 150.056 162.604 148.832C163.996 147.584 165.628 146.96 167.5 146.96C169.876 146.96 171.556 147.752 172.54 149.336C173.524 150.896 174.04 153.128 174.088 156.032C174.112 156.896 174.124 157.856 174.124 158.912C174.124 159.968 174.136 161.024 174.16 162.08C174.16 163.064 174.172 164.516 174.196 166.436C174.22 168.332 174.244 169.52 174.268 170H170.344L170.416 166.148L170.452 163.448V158.156C170.452 156.596 170.368 155.24 170.2 154.088C170.032 152.936 169.6 151.928 168.904 151.064C168.232 150.176 167.188 149.732 165.772 149.732C163.18 149.732 161.176 151.604 159.76 155.348V161.72L159.832 165.428L159.94 170H155.944C156.04 167.624 156.088 163.844 156.088 158.66C156.064 156.476 155.896 154.736 155.584 153.44C155.296 152.144 154.816 151.208 154.144 150.632C153.472 150.032 152.56 149.732 151.408 149.732C148.816 149.732 146.812 151.604 145.396 155.348V159.56C145.396 163.496 145.456 166.976 145.576 170H141.544ZM183.871 144.692C182.983 144.692 182.359 144.548 181.999 144.26C181.639 143.948 181.459 143.468 181.459 142.82C181.459 142.172 181.639 141.692 181.999 141.38C182.359 141.044 182.983 140.876 183.871 140.876C184.759 140.876 185.383 141.044 185.743 141.38C186.103 141.692 186.283 142.172 186.283 142.82C186.283 143.468 186.103 143.948 185.743 144.26C185.383 144.548 184.759 144.692 183.871 144.692ZM181.927 170C182.023 166.664 182.071 163.112 182.071 159.344C182.071 154.64 182.023 150.644 181.927 147.356C182.239 147.356 182.491 147.368 182.683 147.392L183.871 147.428L185.095 147.392C185.287 147.368 185.539 147.356 185.851 147.356C185.779 150.596 185.743 154.592 185.743 159.344C185.743 163.208 185.779 166.76 185.851 170H181.927ZM193.517 170C193.637 167.624 193.697 163.868 193.697 158.732C193.697 153.596 193.661 149.828 193.589 147.428H197.513L197.009 154.088H197.333C197.957 151.976 199.097 150.26 200.753 148.94C202.409 147.62 204.245 146.96 206.261 146.96C208.685 146.96 210.365 147.728 211.301 149.264C212.261 150.776 212.777 153.08 212.849 156.176C212.873 157.016 212.885 157.952 212.885 158.984C212.885 160.016 212.897 161.048 212.921 162.08C212.921 163.04 212.933 164.456 212.957 166.328C212.981 168.2 213.005 169.424 213.029 170H209.105L209.213 164.276V163.232C209.189 162.656 209.177 160.988 209.177 158.228C209.177 156.668 209.093 155.3 208.925 154.124C208.757 152.948 208.337 151.928 207.665 151.064C206.993 150.176 205.961 149.732 204.569 149.732C203.033 149.732 201.605 150.26 200.285 151.316C198.965 152.372 197.993 153.716 197.369 155.348V159.992C197.369 164.384 197.417 167.72 197.513 170H193.517ZM241.706 150.164C240.386 150.164 239.318 150.56 238.502 151.352C237.71 152.12 237.074 153.212 236.594 154.628C236.594 156.068 236.258 157.34 235.586 158.444C234.938 159.548 234.014 160.412 232.814 161.036C231.614 161.636 230.246 161.936 228.71 161.936C226.718 161.936 225.098 161.588 223.85 160.892L222.374 163.664C222.206 163.904 222.122 164.12 222.122 164.312C222.122 164.648 222.314 164.816 222.698 164.816C227.426 164.792 232.478 164.66 237.854 164.42C238.046 164.42 238.394 164.576 238.898 164.888C239.426 165.2 239.894 165.656 240.302 166.256C240.734 166.832 240.95 167.516 240.95 168.308C240.95 169.484 240.482 170.66 239.546 171.836C238.61 173.012 237.206 173.984 235.334 174.752C233.486 175.52 231.278 175.892 228.71 175.868C226.742 175.844 224.882 175.424 223.13 174.608C221.378 173.816 220.154 172.652 219.458 171.116L222.662 169.64C223.382 170.672 224.33 171.44 225.506 171.944C226.682 172.448 228.122 172.7 229.826 172.7C231.194 172.7 232.37 172.568 233.354 172.304C234.338 172.04 235.094 171.704 235.622 171.296C236.03 171.008 236.378 170.66 236.666 170.252C236.954 169.844 237.122 169.46 237.17 169.1C237.002 168.26 236.69 167.72 236.234 167.48C235.802 167.24 235.058 167.12 234.002 167.12L221.87 167.156C221.462 167.156 221.102 166.892 220.79 166.364C220.502 165.836 220.358 165.284 220.358 164.708C220.358 164.348 220.43 164.06 220.574 163.844L222.878 160.244C221.294 158.924 220.502 156.92 220.502 154.232C220.502 151.952 221.21 150.164 222.626 148.868C224.066 147.548 226.094 146.888 228.71 146.888C230.294 146.888 231.65 147.176 232.778 147.752C233.906 148.328 234.746 149.12 235.298 150.128C235.85 151.136 236.078 152.276 235.982 153.548L236.27 153.584C236.342 151.544 236.846 149.9 237.782 148.652C238.718 147.38 240.038 146.744 241.742 146.744L241.706 150.164ZM232.058 158.264C232.898 157.28 233.318 155.96 233.318 154.304C233.318 152.96 232.886 151.82 232.022 150.884C231.158 149.948 230.006 149.48 228.566 149.48C227.222 149.48 226.106 149.78 225.218 150.38C224.21 151.388 223.706 152.684 223.706 154.268C223.706 155.852 224.138 157.1 225.002 158.012C225.866 158.9 227.114 159.344 228.746 159.344C229.322 159.344 229.91 159.248 230.51 159.056C231.11 158.864 231.626 158.6 232.058 158.264ZM129.366 206.432C125.742 206.432 123.006 205.748 121.158 204.38C119.31 202.988 118.218 200.864 117.882 198.008L121.878 197.72C122.238 199.64 122.982 201.116 124.11 202.148C125.262 203.156 127.038 203.66 129.438 203.66C130.638 203.66 131.718 203.552 132.678 203.336C133.662 203.12 134.418 202.784 134.946 202.328C135.954 201.248 136.458 199.928 136.458 198.368C136.458 197.408 136.23 196.616 135.774 195.992C135.318 195.344 134.55 194.804 133.47 194.372C132.39 193.94 130.902 193.58 129.006 193.292C125.574 192.956 122.994 192.188 121.266 190.988C119.538 189.764 118.674 188 118.674 185.696C118.674 183.224 119.634 181.352 121.554 180.08C123.498 178.808 126.054 178.172 129.222 178.172C132.462 178.172 134.91 178.868 136.566 180.26C138.246 181.652 139.374 183.716 139.95 186.452L136.242 186.848C135.93 185.552 135.522 184.484 135.018 183.644C134.514 182.804 133.782 182.156 132.822 181.7C131.862 181.244 130.59 181.016 129.006 181.016C126.894 181.016 125.346 181.328 124.362 181.952C123.786 182.432 123.318 183.02 122.958 183.716C122.622 184.388 122.454 185.132 122.454 185.948C122.454 186.98 122.682 187.82 123.138 188.468C123.618 189.092 124.362 189.596 125.37 189.98C126.402 190.364 127.818 190.712 129.618 191.024C132.354 191.336 134.49 191.816 136.026 192.464C137.562 193.088 138.642 193.892 139.266 194.876C139.89 195.86 140.19 197.096 140.166 198.584C140.142 201.056 139.158 202.988 137.214 204.38C135.27 205.748 132.654 206.432 129.366 206.432ZM156.048 206.432C152.712 206.432 150.108 205.424 148.236 203.408C146.388 201.368 145.464 198.512 145.464 194.84C145.464 191.072 146.388 188.144 148.236 186.056C150.108 183.944 152.712 182.888 156.048 182.888C159.408 182.888 162.024 183.932 163.896 186.02C165.768 188.108 166.704 191.036 166.704 194.804C166.704 198.5 165.768 201.368 163.896 203.408C162.048 205.424 159.432 206.432 156.048 206.432ZM156.48 203.66C158.328 203.66 159.804 203.12 160.908 202.04C162.252 200.144 162.924 197.708 162.924 194.732C162.924 191.852 162.288 189.62 161.016 188.036C159.744 186.452 157.956 185.66 155.652 185.66C154.596 185.66 153.636 185.876 152.772 186.308C151.932 186.716 151.224 187.316 150.648 188.108C149.736 190.004 149.28 192.236 149.28 194.804C149.28 197.636 149.904 199.82 151.152 201.356C152.4 202.892 154.176 203.66 156.48 203.66ZM182.439 206.432C179.103 206.432 176.499 205.424 174.627 203.408C172.779 201.368 171.855 198.512 171.855 194.84C171.855 191.072 172.779 188.144 174.627 186.056C176.499 183.944 179.103 182.888 182.439 182.888C185.799 182.888 188.415 183.932 190.287 186.02C192.159 188.108 193.095 191.036 193.095 194.804C193.095 198.5 192.159 201.368 190.287 203.408C188.439 205.424 185.823 206.432 182.439 206.432ZM182.871 203.66C184.719 203.66 186.195 203.12 187.299 202.04C188.643 200.144 189.315 197.708 189.315 194.732C189.315 191.852 188.679 189.62 187.407 188.036C186.135 186.452 184.347 185.66 182.043 185.66C180.987 185.66 180.027 185.876 179.163 186.308C178.323 186.716 177.615 187.316 177.039 188.108C176.127 190.004 175.671 192.236 175.671 194.804C175.671 197.636 176.295 199.82 177.543 201.356C178.791 202.892 180.567 203.66 182.871 203.66ZM199.506 206C199.626 203.624 199.686 199.868 199.686 194.732C199.686 189.596 199.65 185.828 199.578 183.428H203.502L202.998 190.088H203.322C203.946 187.976 205.086 186.26 206.742 184.94C208.398 183.62 210.234 182.96 212.25 182.96C214.674 182.96 216.354 183.728 217.29 185.264C218.25 186.776 218.766 189.08 218.838 192.176C218.862 193.016 218.874 193.952 218.874 194.984C218.874 196.016 218.886 197.048 218.91 198.08C218.91 199.04 218.922 200.456 218.946 202.328C218.97 204.2 218.994 205.424 219.018 206H215.094L215.202 200.276V199.232C215.178 198.656 215.166 196.988 215.166 194.228C215.166 192.668 215.082 191.3 214.914 190.124C214.746 188.948 214.326 187.928 213.654 187.064C212.982 186.176 211.95 185.732 210.558 185.732C209.022 185.732 207.594 186.26 206.274 187.316C204.954 188.372 203.982 189.716 203.358 191.348V195.992C203.358 200.384 203.406 203.72 203.502 206H199.506Z" fill="white"/>
</svg>
